# Blender v2.82 (sub 7) OBJ File: 'key.blend'
# www.blender.org
mtllib key.mtl
o Clef_Mesh.009
v -0.210581 0.047367 0.052434
v -0.232450 0.047003 0.043376
v 0.242304 0.054915 0.043376
v -0.241508 0.046854 0.021508
v 0.251363 0.055066 0.021508
v -0.241508 0.046854 -0.201367
v 0.220436 0.054550 0.052434
v -0.232450 0.047003 -0.223236
v 0.251363 0.055066 -0.201367
v -0.210581 0.047367 -0.232293
v 0.220436 0.054550 -0.232293
v 0.242304 0.054915 -0.223236
v 0.220436 3.345881 0.052434
v 0.242304 3.346247 0.043375
v -0.641285 3.534058 0.052434
v -0.991677 3.675184 0.052434
v -0.686628 3.499064 0.052434
v -0.613774 3.466108 0.052434
v -0.261146 3.347806 0.052434
v -0.991677 3.675184 -0.232293
v -1.085418 4.213286 -0.232293
v -0.262188 3.345287 0.052433
v -1.134827 4.213286 0.052434
v -0.241508 3.338182 0.052434
v -0.232450 3.338333 0.043376
v -0.234697 3.338297 0.037951
v -0.241508 3.316316 0.021508
v -0.210581 3.338698 0.052434
v -0.664336 3.521964 -0.232293
v -0.613774 3.466108 -0.232293
v -0.686628 3.499064 -0.232293
v -0.262188 3.345287 -0.232293
v -1.043241 4.429982 0.052434
v -1.191290 4.646676 0.052434
v -0.261564 3.346899 -0.232293
v -0.234697 3.338297 -0.217809
v -0.241508 3.316316 -0.201367
v -1.134827 4.646676 -0.232293
v -0.241508 3.338182 -0.232293
v -0.232450 3.338333 -0.223236
v -0.210581 3.338698 -0.232293
v -1.043241 4.429982 -0.232293
v 0.251363 3.346398 0.052434
v 0.251363 3.319069 0.021508
v 0.275031 3.360062 0.030491
v 0.308104 3.421456 0.052434
v 0.332849 3.393443 0.052434
v 0.242304 3.346247 -0.223235
v 0.275031 3.360062 -0.210349
v 0.251363 3.319069 -0.201367
v 0.251363 3.346398 -0.232293
v 0.220436 3.345881 -0.232293
v -0.815901 5.440345 0.052434
v 0.308104 3.421456 -0.232293
v 0.332849 3.393443 -0.232293
v 0.651042 3.605273 0.052434
v 0.580002 3.557287 0.052434
v 0.584508 3.538740 0.052434
v -0.777676 5.410025 -0.232293
v 0.584508 3.538740 -0.232293
v 0.580002 3.557287 -0.232293
v 0.651042 3.605273 -0.232293
v -0.544219 5.439056 0.052434
v -0.440575 5.657043 0.052434
v 0.969338 4.429970 0.052434
v 0.939155 4.002384 0.052434
v 0.991737 4.109008 0.052434
v -0.582444 5.417120 -0.232293
v -0.440575 5.610317 -0.232293
v 1.029951 4.221585 0.052434
v 1.053144 4.338185 0.052434
v 0.991737 4.109008 -0.232293
v 0.939155 4.002384 -0.232293
v 1.060920 4.456815 0.052434
v 0.415774 5.398355 0.052434
v 1.029951 4.221585 -0.232293
v 1.060920 4.646676 0.052434
v 0.391849 5.155641 0.052434
v 0.406149 5.175001 0.052434
v 0.403688 5.184066 0.052434
v 0.415518 5.174336 0.052434
v 1.053140 4.338188 -0.232293
v 1.060920 4.456815 -0.232293
v 0.415774 5.398355 -0.232293
v 0.459015 5.340626 0.052434
v 0.454159 5.321384 0.052434
v 0.456713 5.352995 0.052434
v 0.442559 5.381377 0.052434
v 1.060920 4.646676 -0.232293
v 0.583490 5.269990 0.052434
v 0.596359 5.275119 0.052434
v 0.566410 5.266073 0.052434
v 0.390896 5.156290 -0.232293
v 0.403688 5.184066 -0.232293
v 0.406149 5.175001 -0.232293
v 0.415518 5.174336 -0.232293
v 0.626938 5.268511 0.052434
v 0.650482 5.247910 0.052434
v 0.457089 5.341498 -0.232293
v 0.456713 5.352995 -0.232293
v 0.454159 5.321384 -0.232293
v 0.442559 5.381377 -0.232293
v 0.582675 5.271040 -0.232293
v 0.566410 5.266073 -0.232293
v 0.596359 5.275119 -0.232293
v 0.626938 5.268511 -0.232293
v 0.650482 5.247910 -0.232293
v -0.758221 3.646151 -0.232293
v -0.204734 3.772934 0.052434
v -0.065184 3.876332 0.052434
v -0.065184 3.876332 -0.232293
v -0.204734 3.772934 -0.232293
v 0.074364 3.772934 0.052434
v 0.074364 3.772934 -0.232293
v -0.065184 4.167920 0.052434
v -0.065184 4.167920 -0.232293
v 0.393232 3.534061 0.052434
v 0.393232 3.534061 -0.232293
v 0.349885 5.082956 0.052434
v 0.332268 5.082956 -0.232293
v -0.065184 4.429982 0.052434
v -0.065184 4.429982 -0.232293
v 0.126300 4.525822 -0.232293
v 0.167504 4.533618 -0.196770
v 0.261672 4.742388 -0.197213
v 0.237383 4.774065 -0.232293
v 0.543750 4.786968 -0.197213
v 0.568554 4.826404 -0.232293
v 0.646360 4.567038 -0.232293
v 0.619825 4.533618 -0.197144
v 0.317671 4.375684 -0.197213
v 0.273108 4.374116 -0.232293
v 0.271892 4.429983 -0.197213
v 0.246018 4.406249 -0.232293
v 0.545817 4.383707 -0.232293
v 0.500517 4.382119 -0.197270
v 0.579750 4.406641 -0.232293
v 0.568563 4.467569 -0.232293
v 0.979821 4.454776 -0.232293
v 0.999855 4.438915 -0.232293
v 1.004048 4.310638 -0.232293
v 0.971552 4.398247 -0.232293
v 0.967587 4.405164 -0.232293
v -0.793726 4.622839 -0.232293
v -0.733734 4.607037 -0.190131
v -0.489366 4.753773 -0.189989
v -0.488004 4.803779 -0.232293
v -0.733734 4.599099 0.009997
v -0.790201 4.611023 0.052434
v -0.489245 4.804074 0.052434
v -0.489366 4.753773 0.010131
v -0.114283 4.561144 0.052434
v -0.125178 4.561223 -0.232293
v -0.634328 4.431390 0.011209
v -0.667020 4.401354 0.052434
v -0.516406 4.348720 0.010689
v -0.516187 4.294540 0.052434
v -0.505223 4.304373 -0.232293
v -0.509196 4.355359 -0.189470
v -0.619718 4.428950 -0.189245
v -0.649860 4.399027 -0.232293
v -0.414953 4.430080 0.010190
v -0.390705 4.395222 0.052434
v -0.416320 4.429868 -0.189919
v -0.391851 4.395354 -0.232293
v 0.300593 4.337181 0.052434
v 0.312669 4.364407 0.041342
v 0.317671 4.375684 0.014561
v 0.499647 4.382119 0.014529
v 0.505205 4.371197 0.041328
v 0.518837 4.344844 0.052434
v 0.113912 4.525038 0.052434
v 0.146699 4.531121 0.041551
v 0.160849 4.533618 0.015034
v 0.236294 4.776721 0.052434
v 0.254238 4.752443 0.041342
v 0.261672 4.742388 0.014561
v 0.570389 4.829521 0.052434
v 0.551553 4.799432 0.041342
v 0.543750 4.786968 0.014561
v 0.662917 4.525268 0.052434
v 0.633115 4.531174 0.041368
v 0.620695 4.533618 0.014621
v 0.271893 4.429982 0.014560
v 0.263862 4.422298 0.041342
v 0.244466 4.403758 0.052434
v 0.536023 4.429780 0.014404
v 0.544609 4.423004 0.041276
v 0.565637 4.406412 0.052434
v -0.223570 4.545361 0.010481
v -0.179449 4.562244 0.018640
v -0.222966 4.580621 0.010487
v -0.229446 4.580590 -0.189626
v -0.186884 4.562252 -0.198129
v -0.230026 4.545330 -0.189631
vt 0.729809 0.730823
vt 0.729657 0.730826
vt 0.729809 0.975439
vt 0.729195 0.732460
vt 0.729195 0.975450
vt 0.729809 0.730823
vt 0.729809 0.975439
vt 0.729657 0.730826
vt 0.729195 0.732460
vt 0.729195 0.975450
vt 0.784888 0.714551
vt 0.772226 0.716277
vt 0.785194 0.715929
vt 0.766455 0.724646
vt 0.768133 0.726728
vt 0.784888 0.714551
vt 0.785194 0.715929
vt 0.772226 0.716277
vt 0.768133 0.726728
vt 0.766455 0.724646
vt 0.776686 0.582011
vt 0.769288 0.601161
vt 0.776357 0.583441
vt 0.772133 0.595759
vt 0.772935 0.593646
vt 0.785125 0.587260
vt 0.783967 0.587552
vt 0.773738 0.594370
vt 0.776556 0.581946
vt 0.776357 0.583441
vt 0.768094 0.601161
vt 0.772068 0.595711
vt 0.772935 0.593646
vt 0.785070 0.587182
vt 0.783967 0.587552
vt 0.773738 0.594370
vt 0.764213 0.729209
vt 0.764213 0.729209
vt 0.741149 0.649691
vt 0.708674 0.574695
vt 0.715700 0.558494
vt 0.773755 0.577720
vt 0.741149 0.649691
vt 0.706082 0.576326
vt 0.715700 0.561967
vt 0.773755 0.577720
vt 0.741149 0.669168
vt 0.702093 0.716277
vt 0.731689 0.698523
vt 0.727864 0.730119
vt 0.727836 0.730187
vt 0.731689 0.698523
vt 0.731292 0.730796
vt 0.760512 0.730262
vt 0.741149 0.690839
vt 0.750609 0.698523
vt 0.750609 0.698523
vt 0.731292 0.730796
vt 0.760512 0.730262
vt 0.741149 0.690839
vt 0.741149 0.669168
vt 0.694166 0.707946
vt 0.700530 0.717176
vt 0.762246 0.651455
vt 0.764083 0.653843
vt 0.782571 0.653130
vt 0.789705 0.710984
vt 0.809237 0.681470
vt 0.784871 0.651426
vt 0.811164 0.651535
vt 0.754130 0.642568
vt 0.761661 0.624118
vt 0.784113 0.646897
vt 0.789387 0.639505
vt 0.811993 0.647848
vt 0.784112 0.620228
vt 0.789666 0.588901
vt 0.817492 0.633586
vt 0.813351 0.649027
vt 0.816964 0.656513
vt 0.811433 0.652049
vt 0.813636 0.658561
vt 0.737082 0.639937
vt 0.732898 0.639860
vt 0.712485 0.621910
vt 0.730013 0.638497
vt 0.712392 0.625626
vt 0.737820 0.639943
vt 0.712401 0.621888
vt 0.733403 0.639861
vt 0.730453 0.638495
vt 0.712392 0.625626
vt 0.719081 0.652274
vt 0.730411 0.641116
vt 0.717437 0.649684
vt 0.695826 0.636532
vt 0.695826 0.637122
vt 0.703555 0.649767
vt 0.702565 0.649586
vt 0.710559 0.655730
vt 0.711048 0.655237
vt 0.717344 0.649699
vt 0.729974 0.641118
vt 0.710574 0.659757
vt 0.678339 0.705788
vt 0.668634 0.665796
vt 0.700348 0.651818
vt 0.674843 0.649691
vt 0.719003 0.652264
vt 0.711317 0.659026
vt 0.674843 0.649691
vt 0.701512 0.651991
vt 0.671984 0.665796
vt 0.678339 0.705788
vt 0.691998 0.636236
vt 0.664807 0.633586
vt 0.690256 0.574599
vt 0.691759 0.635357
vt 0.668634 0.633586
vt 0.692847 0.576853
vt 0.762141 0.651640
vt 0.765946 0.656588
vt 0.811283 0.649692
vt 0.783914 0.651443
vt 0.809237 0.681470
vt 0.780742 0.656018
vt 0.789705 0.710984
vt 0.753291 0.642626
vt 0.761587 0.623921
vt 0.790509 0.642609
vt 0.784237 0.619997
vt 0.789666 0.588901
vt 0.817492 0.633586
vt 0.767104 0.653726
vt 0.779500 0.653248
vt 0.767104 0.653726
vt 0.779441 0.653248
vt 0.756472 0.641988
vt 0.764001 0.649691
vt 0.756924 0.641988
vt 0.764001 0.649691
vt 0.787588 0.641988
vt 0.787647 0.641988
vt 0.781907 0.649706
vt 0.760512 0.974878
vt 0.761995 0.974851
vt 0.761995 0.730235
vt 0.699019 0.718878
vt 0.703958 0.721327
vt 0.727793 0.730307
vt 0.729195 0.730835
vt 0.703958 0.721327
vt 0.699019 0.718878
vt 0.727793 0.730307
vt 0.729195 0.730835
vt 0.762609 0.730224
vt 0.762609 0.732255
vt 0.761995 0.730235
vt 0.762609 0.732255
vt 0.762609 0.730224
vt 0.812801 0.673546
vt 0.815392 0.665179
vt 0.816964 0.656513
vt 0.817492 0.647697
vt 0.773102 0.594320
vt 0.776530 0.581091
vt 0.775571 0.578982
vt 0.785997 0.586879
vt 0.773102 0.594320
vt 0.788070 0.587370
vt 0.776530 0.581091
vt 0.775571 0.578982
vt 0.785997 0.586879
vt 0.788070 0.587370
vt 0.731292 0.975412
vt 0.731292 0.975412
vt 0.762609 0.974840
vt 0.760512 0.974878
vt 0.762609 0.974840
vt 0.761995 0.974851
vt 0.812801 0.673546
vt 0.815392 0.665179
vt 0.817492 0.647697
vt 0.763308 0.626472
vt 0.782431 0.623159
vt 0.766765 0.654564
vt 0.779818 0.654060
vt 0.755513 0.642174
vt 0.763456 0.650262
vt 0.763308 0.626472
vt 0.782431 0.623159
vt 0.782489 0.650209
vt 0.762804 0.625725
vt 0.782960 0.622233
vt 0.788489 0.642170
vn -0.9239 0.0000 0.3827
vn -0.9985 0.0000 0.0553
vn -0.9993 0.0000 0.0370
vn -0.9239 0.0000 -0.3826
vn -0.9239 0.0000 -0.3827
vn -0.9985 0.0000 -0.0553
vn -0.9993 0.0000 -0.0370
vn -0.0000 0.0000 1.0000
vn -0.0000 0.0000 -1.0000
vn 0.5468 -0.8373 -0.0000
vn 0.5467 -0.8373 0.0000
vn 0.5000 -0.8661 0.0001
vn 0.5000 -0.8661 -0.0001
vn 0.5311 -0.8473 -0.0007
vn 0.5311 -0.8473 0.0007
vn -0.0000 -0.0001 1.0000
vn -0.0000 -0.0001 -1.0000
vn 0.0168 -0.0000 -0.9999
vn 0.0165 -0.0000 0.9999
vn -0.0022 0.0006 -1.0000
vn -0.0019 0.0005 -1.0000
vn -0.0031 0.0008 -1.0000
vn -0.3944 -0.5915 -0.7033
vn -0.3944 -0.5915 -0.7032
vn -0.3831 -0.5898 0.7109
vn -0.3624 0.6020 0.7115
vn -0.3886 0.5850 0.7119
vn -0.3622 0.6021 0.7115
vn 0.7500 0.6602 0.0395
vn 0.7501 0.6602 0.0395
vn -0.5599 0.8285 0.0074
vn -0.5600 0.8285 0.0074
vn 0.0019 0.0019 1.0000
vn 0.0005 0.0025 1.0000
vn -0.0018 0.0014 1.0000
vn -0.0006 0.0024 1.0000
vn 0.0048 0.0001 1.0000
vn 0.0039 -0.0058 1.0000
vn -0.0055 0.0001 1.0000
vn -0.0033 -0.0056 1.0000
vn -0.0351 0.9994 -0.0000
vn -0.0352 0.9994 -0.0000
vn -0.0352 0.9994 -0.0001
vn -0.0352 0.9994 -0.0002
vn -0.0352 0.9984 0.0444
vn -0.0345 0.9984 0.0441
vn 0.7130 0.6995 0.0477
vn 0.7163 0.6970 0.0334
vn 0.7171 0.6969 0.0074
vn 0.7191 0.6944 0.0256
vn -0.7838 0.6210 -0.0044
vn -0.7827 0.6217 0.0297
vn -0.7835 0.6211 0.0182
vn -0.7842 0.6204 0.0116
vn -0.3751 0.6048 -0.7025
vn -0.3981 0.5887 -0.7035
vn -0.3750 0.6048 -0.7026
vn 0.0196 -0.0000 0.9998
vn 0.3827 0.0000 0.9239
vn 0.3763 -0.0022 0.9265
vn -0.0001 -0.0001 1.0000
vn -0.9731 -0.2142 -0.0844
vn -0.8588 -0.5092 -0.0561
vn -0.0001 -0.0003 1.0000
vn -0.2635 -0.9557 -0.1315
vn 0.2318 -0.6277 0.7431
vn 0.0112 -0.6731 0.7395
vn -0.0001 -0.0002 -1.0000
vn 0.2319 -0.6277 -0.7431
vn -0.9512 0.2507 -0.1802
vn -0.9761 -0.1192 -0.1815
vn -0.9535 0.2415 -0.1805
vn -0.0002 -0.0005 -1.0000
vn -0.2635 -0.9557 0.1315
vn 0.0118 -0.7073 -0.7068
vn 0.0015 -0.0938 0.9956
vn 0.4843 -0.4447 0.7534
vn 0.4655 -0.8837 -0.0482
vn 0.4844 -0.4447 -0.7534
vn 0.0015 -0.0938 -0.9956
vn 0.3763 -0.0022 -0.9265
vn -0.8916 0.4195 -0.1706
vn 0.4655 -0.8837 0.0482
vn -0.4995 0.8534 -0.1490
vn 0.0260 0.9938 -0.1081
vn 0.0172 0.9939 -0.1091
vn 0.2739 0.9587 -0.0763
vn 0.2739 0.9587 -0.0762
vn 0.0000 0.0032 1.0000
vn -0.0196 -0.0000 0.9998
vn -0.3827 0.0000 0.9239
vn -0.0204 0.0000 0.9998
vn -0.3827 0.0000 -0.9239
vn -0.0196 0.0000 -0.9998
vn -0.0204 0.0000 -0.9998
vn 0.9985 0.0000 0.0546
vn 0.9239 0.0000 0.3827
vn 0.9993 0.0000 0.0373
vn 0.0196 -0.0000 -0.9998
vn 0.9993 0.0000 -0.0373
vn 0.9985 0.0000 -0.0546
vn 0.9239 0.0000 -0.3827
vn 0.3827 0.0000 -0.9239
vn -0.4841 -0.8750 0.0000
vn -0.3406 -0.9402 0.0000
vn -0.3250 -0.9457 0.0000
vn -0.8139 -0.5810 0.0000
vn 0.8660 -0.5000 0.0000
vn -0.5953 0.8035 0.0000
vn 0.5953 0.8035 0.0000
vn 0.9429 -0.3331 0.0000
vn -0.9429 -0.3331 0.0000
vn 0.7943 -0.6075 -0.0000
vn 0.8283 -0.5602 -0.0000
vn 0.9239 -0.3827 0.0000
vn 0.9659 -0.2588 -0.0000
vn 0.9914 -0.1305 -0.0000
vn 0.9997 -0.0252 0.0000
vn 0.9651 0.2620 0.0000
vn 0.0708 0.9975 0.0000
vn 0.8877 0.4605 0.0000
vn 0.9541 -0.2995 -0.0000
vn 0.9386 -0.3450 0.0000
vn -0.5195 0.8545 0.0000
vn -0.4868 0.8735 0.0000
vn 0.9968 -0.0805 0.0000
vn 0.8200 0.5723 0.0000
vn 0.8949 0.4463 0.0000
vn 0.5354 0.8446 0.0000
vn -0.0402 0.9992 0.0000
vn 0.4491 0.8935 0.0000
vn 0.5017 0.5051 -0.7022
vn 0.5122 0.4923 -0.7038
vn 0.6497 -0.2925 -0.7016
vn 0.1104 -0.6984 -0.7071
vn -0.6778 -0.2035 -0.7066
vn 0.5406 0.4558 -0.7071
vn -0.4316 0.1171 -0.8944
vn 0.6016 0.3845 -0.7001
vn 0.5281 0.4749 -0.7039
vn 0.5280 0.4751 -0.7039
vn 0.3576 -0.6000 -0.7157
vn 0.5999 0.3561 0.7164
vn 0.5182 0.4491 0.7279
vn 0.5181 0.4493 0.7279
vn 0.3845 -0.6033 0.6987
vn 0.3974 0.5617 0.7257
vn -0.4393 0.5496 0.7106
vn -0.4454 0.5532 -0.7039
vn 0.3978 0.6042 -0.6905
vn 0.5248 -0.8510 -0.0169
vn -0.5497 -0.8353 0.0090
vn -0.0326 0.9232 0.3829
vn 0.0742 0.3479 0.9346
vn -0.0895 0.3474 0.9334
vn 0.6281 0.6734 0.3900
vn 0.6540 0.6493 0.3882
vn 0.3168 0.0082 0.9485
vn 0.2697 0.2676 0.9250
vn 0.9031 -0.4237 0.0696
vn 0.9060 -0.4231 0.0142
vn 0.9033 -0.4237 0.0667
vn 0.1558 -0.9862 0.0559
vn 0.1559 -0.9864 0.0527
vn 0.1561 -0.9877 0.0000
vn -0.9573 -0.2891 0.0020
vn -0.9558 -0.2889 0.0549
vn -0.9554 -0.2894 0.0580
vn -0.7358 0.5612 0.3790
vn -0.7225 0.5773 0.3805
vn -0.2994 0.2391 0.9237
vn 0.1898 -0.2866 0.9391
vn 0.8281 -0.4006 0.3922
vn -0.1508 -0.2572 0.9545
vn 0.1442 -0.9126 0.3827
vn -0.3480 0.0052 0.9375
vn -0.8835 -0.2684 0.3840
vn 0.7063 0.5955 0.3827
vn -0.7163 0.5845 0.3811
vn -0.9993 0.0168 0.0323
vn -0.1829 0.0030 0.9831
vn -0.1945 0.0033 -0.9809
usemtl lambert1
s 1
f 25/1/1 26/2/1 2/3/1
f 26/2/1 27/4/2 2/3/1
f 27/4/2 4/5/3 2/3/1
f 40/6/4 8/7/5 36/8/4
f 36/8/4 8/7/5 37/9/6
f 37/9/6 8/7/5 6/10/7
f 57/11/8 117/12/8 58/13/8
f 46/14/8 47/15/8 117/12/8
f 117/12/8 47/15/8 58/13/8
f 61/16/9 60/17/9 118/18/9
f 55/19/9 54/20/9 60/17/9
f 118/18/9 60/17/9 54/20/9
f 85/21/8 119/22/8 86/23/8
f 119/22/8 78/24/8 86/23/8
f 78/24/8 80/25/8 86/23/8
f 90/26/8 92/27/8 119/22/8
f 92/27/8 81/28/8 119/22/8
f 119/22/8 81/28/8 78/24/8
f 99/29/9 101/30/9 120/31/9
f 120/31/9 101/30/9 93/32/9
f 101/30/9 94/33/9 93/32/9
f 103/34/9 120/31/9 104/35/9
f 120/31/9 93/32/9 104/35/9
f 93/32/9 96/36/9 104/35/9
f 60/17/10 58/13/11 55/19/12
f 58/13/11 47/15/13 55/19/12
f 47/15/13 45/37/14 55/19/12
f 45/37/14 49/38/15 55/19/12
f 121/39/8 119/22/8 63/40/8
f 63/40/8 119/22/8 64/41/8
f 64/41/8 119/22/8 75/42/8
f 119/22/8 85/21/8 75/42/8
f 122/43/9 68/44/9 120/31/9
f 68/44/9 69/45/9 120/31/9
f 99/29/9 120/31/9 84/46/9
f 69/45/9 84/46/9 120/31/9
f 46/14/8 117/12/8 115/47/8
f 117/12/8 121/39/8 115/47/8
f 121/39/8 15/48/8 115/47/8
f 115/47/8 15/48/8 109/49/8
f 15/48/8 19/50/16 109/49/8
f 35/51/17 112/52/9 41/53/9
f 41/53/9 112/52/9 52/54/18
f 112/52/9 111/55/9 52/54/18
f 111/55/9 114/56/9 52/54/18
f 54/20/9 52/54/18 114/56/9
f 115/47/8 113/57/8 46/14/8
f 19/50/16 28/58/8 109/49/8
f 28/58/8 13/59/19 109/49/8
f 109/49/8 13/59/19 110/60/8
f 110/60/8 13/59/19 113/57/8
f 113/57/8 13/59/19 46/14/8
f 54/20/9 114/56/9 118/18/9
f 118/18/9 114/56/9 122/43/9
f 114/56/9 116/61/9 122/43/9
f 122/43/9 116/61/9 108/62/9
f 116/61/9 112/52/9 108/62/9
f 108/62/9 112/52/9 29/63/9
f 112/52/9 35/51/17 29/63/9
f 122/43/9 134/64/9 118/18/9
f 134/64/9 132/65/9 118/18/9
f 132/65/9 135/66/20 118/18/9
f 118/18/9 135/66/20 61/16/9
f 61/16/9 135/66/20 62/67/9
f 62/67/9 135/66/20 73/68/9
f 135/66/20 137/69/21 73/68/9
f 137/69/21 143/70/9 73/68/9
f 134/64/9 122/43/9 123/71/9
f 122/43/9 120/31/9 123/71/9
f 123/71/9 120/31/9 126/72/9
f 138/73/22 129/74/9 139/75/9
f 126/72/9 120/31/9 128/76/9
f 120/31/9 103/34/9 128/76/9
f 103/34/9 107/77/9 128/76/9
f 107/77/9 89/78/9 128/76/9
f 128/76/9 89/78/9 129/74/9
f 89/78/9 139/75/9 129/74/9
f 139/75/9 140/79/9 143/70/9
f 140/79/9 82/80/9 143/70/9
f 143/70/9 82/80/9 142/81/9
f 82/80/9 141/82/9 142/81/9
f 153/83/23 194/84/23 147/85/23
f 194/84/23 193/86/23 147/85/23
f 146/87/24 147/85/23 193/86/23
f 152/88/25 150/89/25 191/90/25
f 191/90/25 150/89/25 192/91/25
f 150/89/25 151/92/25 192/91/25
f 152/88/26 191/90/26 163/93/27
f 191/90/26 190/94/28 163/93/27
f 190/94/28 162/95/27 163/93/27
f 145/96/29 148/97/29 160/98/29
f 148/97/29 154/99/30 160/98/29
f 154/99/30 156/100/29 160/98/29
f 156/100/29 159/101/29 160/98/29
f 156/100/31 162/95/31 159/101/32
f 159/101/32 162/95/31 164/102/32
f 190/94/32 195/103/31 162/95/31
f 195/103/31 164/102/32 162/95/31
f 121/39/8 163/93/8 15/48/8
f 163/93/8 157/104/8 15/48/8
f 15/48/8 157/104/8 16/105/8
f 16/105/8 157/104/8 23/106/8
f 157/104/8 155/107/8 23/106/8
f 33/108/8 23/106/8 155/107/8
f 122/43/9 108/62/9 165/109/9
f 165/109/9 108/62/9 158/110/9
f 42/111/9 161/112/9 21/113/9
f 158/110/9 108/62/9 161/112/9
f 161/112/9 108/62/9 21/113/9
f 108/62/9 20/114/9 21/113/9
f 163/93/8 121/39/8 152/88/8
f 155/107/8 149/115/8 33/108/8
f 33/108/8 149/115/8 34/116/8
f 34/116/8 149/115/8 53/117/8
f 149/115/8 150/89/8 53/117/8
f 53/117/8 150/89/8 63/40/8
f 63/40/8 150/89/8 121/39/8
f 150/89/8 152/88/8 121/39/8
f 165/109/9 153/83/9 122/43/9
f 161/112/9 42/111/9 144/118/9
f 42/111/9 38/119/9 144/118/9
f 38/119/9 59/120/9 144/118/9
f 144/118/9 59/120/9 147/85/9
f 59/120/9 68/44/9 147/85/9
f 68/44/9 122/43/9 147/85/9
f 122/43/9 153/83/9 147/85/9
f 121/39/8 117/12/8 186/121/33
f 186/121/33 117/12/8 166/122/34
f 65/123/8 189/124/35 66/125/8
f 189/124/35 171/126/36 66/125/8
f 166/122/34 117/12/8 171/126/36
f 117/12/8 57/11/8 171/126/36
f 57/11/8 56/127/8 171/126/36
f 56/127/8 66/125/8 171/126/36
f 186/121/33 172/128/37 121/39/8
f 121/39/8 172/128/37 119/22/8
f 172/128/37 175/129/38 119/22/8
f 189/124/35 65/123/8 181/130/39
f 175/129/38 178/131/40 119/22/8
f 119/22/8 178/131/40 90/26/8
f 90/26/8 178/131/40 98/132/8
f 98/132/8 178/131/40 77/133/8
f 178/131/40 181/130/39 77/133/8
f 65/123/8 77/133/8 181/130/39
f 132/65/41 131/134/42 135/66/43
f 135/66/43 131/134/42 136/135/44
f 168/136/45 169/137/46 131/134/42
f 131/134/42 169/137/46 136/135/44
f 174/138/47 184/139/48 124/140/49
f 124/140/49 184/139/48 133/141/49
f 168/136/50 131/134/49 184/139/48
f 184/139/48 131/134/49 133/141/49
f 129/74/51 138/73/51 130/142/51
f 183/143/52 130/142/51 187/144/53
f 130/142/51 138/73/51 187/144/53
f 138/73/51 136/135/51 187/144/53
f 136/135/51 169/137/54 187/144/53
f 153/83/55 165/109/56 194/84/55
f 194/84/55 165/109/56 195/103/57
f 195/103/57 165/109/56 164/102/56
f 13/59/19 7/145/58 3/146/59 14/147/60
f 15/48/8 16/105/8 17/148/8
f 15/48/8 17/148/8 18/149/8
f 19/50/16 15/48/8 18/149/8 22/150/61
f 21/113/62 20/114/63 16/105/63 23/106/62
f 22/150/61 24/151/64 19/50/16
f 25/1/65 24/151/65 22/150/65 26/2/65
f 26/2/66 22/150/66 27/4/66
f 28/58/67 19/50/67 24/151/67 25/1/67
f 29/63/9 30/152/9 31/153/9
f 32/154/68 30/152/9 29/63/9 35/51/17
f 33/108/8 34/116/8 23/106/8
f 36/8/69 37/9/69 32/154/69
f 38/119/70 21/113/71 23/106/71 34/116/72
f 35/51/17 39/155/73 32/154/68
f 40/6/74 36/8/74 32/154/74 39/155/74
f 39/155/75 35/51/75 41/53/75 40/6/75
f 42/111/9 21/113/9 38/119/9
f 13/59/19 14/147/60 43/156/76 46/14/8
f 14/147/77 44/157/77 45/37/77
f 47/15/13 43/156/78 14/147/78 45/37/14
f 46/14/8 43/156/76 47/15/8
f 48/158/79 49/38/79 50/159/79
f 51/160/80 48/158/81 52/54/18 54/20/9
f 38/119/70 34/116/72 53/117/82 59/120/82
f 48/158/83 51/160/83 55/19/12 49/38/15
f 55/19/9 51/160/80 54/20/9
f 56/127/8 57/11/8 58/13/8
f 60/17/9 61/16/9 62/67/9
f 63/40/8 64/41/8 53/117/8
f 59/120/84 53/117/84 64/41/85 69/45/86
f 65/123/8 66/125/8 67/161/8
f 68/44/9 59/120/9 69/45/9
f 65/123/8 67/161/8 70/162/8
f 65/123/8 70/162/8 71/163/8
f 65/123/8 71/163/8 74/164/8
f 69/45/86 64/41/85 75/42/87 84/46/88
f 65/123/8 74/164/8 77/133/8
f 78/24/8 79/165/8 80/25/8
f 78/24/8 81/28/8 79/165/8
f 85/21/9 86/23/9 87/166/9
f 85/21/8 87/166/8 88/167/8
f 85/21/8 88/167/8 75/42/8
f 90/26/8 91/168/8 92/27/8
f 93/32/9 94/33/9 95/169/9
f 93/32/9 95/169/9 96/36/9
f 90/26/8 97/170/8 91/168/8
f 90/26/8 98/132/8 97/170/8
f 99/29/8 100/171/8 101/30/8
f 99/29/9 102/172/9 100/171/9
f 99/29/9 84/46/9 102/172/9
f 103/34/89 104/35/89 105/173/89
f 103/34/9 105/173/9 106/174/9
f 103/34/9 106/174/9 107/77/9
f 28/58/90 25/1/91 2/3/91 1/175/92
f 4/5/3 27/4/2 37/9/6 6/10/7
f 7/145/58 13/59/19 28/58/90 1/175/92
f 40/6/93 41/53/94 10/176/95 8/7/93
f 44/157/96 14/147/97 3/146/97 5/177/98
f 10/176/95 41/53/94 52/54/18 11/178/99
f 9/179/100 50/159/101 44/157/96 5/177/98
f 48/158/102 50/159/101 9/179/100 12/180/102
f 52/54/18 48/158/81 12/180/103 11/178/99
f 31/153/104 17/148/104 16/105/63 20/114/63
f 18/149/105 17/148/104 31/153/104 30/152/105
f 108/62/9 29/63/9 31/153/9 20/114/9
f 32/154/106 22/150/106 18/149/105 30/152/105
f 27/4/107 22/150/107 32/154/107 37/9/107
f 50/159/108 49/38/15 45/37/14 44/157/108
f 109/49/109 110/60/109 111/55/109 112/52/109
f 110/60/110 113/57/110 114/56/110 111/55/110
f 115/47/111 109/49/111 112/52/111 116/61/111
f 113/57/112 115/47/112 116/61/112 114/56/112
f 56/127/113 58/13/11 60/17/10 62/67/113
f 73/68/114 66/125/114 56/127/113 62/67/113
f 67/161/115 66/125/114 73/68/114 72/181/115
f 70/162/116 67/161/115 72/181/115 76/182/116
f 71/163/117 70/162/116 76/182/116 82/80/117
f 74/164/118 71/163/117 82/80/117 83/183/118
f 95/169/119 94/33/119 80/25/119 79/165/119
f 96/36/120 95/169/120 79/165/120 81/28/120
f 77/133/121 74/164/118 83/183/118 89/78/121
f 101/30/122 86/23/122 80/25/123 94/33/123
f 96/36/124 81/28/124 92/27/125 104/35/125
f 87/166/126 86/23/122 101/30/122 100/171/126
f 107/77/127 98/132/127 77/133/121 89/78/121
f 88/167/128 87/166/128 100/171/128 102/172/128
f 75/42/87 88/167/129 102/172/129 84/46/88
f 92/27/125 91/168/130 105/173/130 104/35/125
f 91/168/130 97/170/131 106/174/131 105/173/130
f 97/170/131 98/132/127 107/77/127 106/174/131
f 140/79/9 139/75/9 89/78/9 83/183/9
f 82/80/9 140/79/9 83/183/9
f 141/82/9 82/80/9 76/182/9
f 142/81/9 141/82/9 76/182/9 72/181/9
f 143/70/9 142/81/9 72/181/9 73/68/9
f 123/71/132 124/140/132 133/141/133 134/64/133
f 124/140/134 123/71/134 126/72/134 125/184/134
f 125/184/135 126/72/135 128/76/135 127/185/135
f 127/185/136 128/76/136 129/74/136 130/142/136
f 131/134/137 132/65/137 134/64/133 133/141/133
f 135/66/20 136/135/138 138/73/22 137/69/21
f 137/69/21 138/73/22 139/75/9 143/70/9
f 144/118/139 145/96/139 160/98/140 161/112/141
f 145/96/142 144/118/142 147/85/142 146/87/142
f 148/97/143 149/115/143 155/107/144 154/99/145
f 149/115/146 148/97/146 151/92/146 150/89/146
f 154/99/145 155/107/144 157/104/147 156/100/147
f 156/100/148 157/104/148 163/93/27 162/95/27
f 158/110/149 159/101/149 164/102/56 165/109/56
f 159/101/150 158/110/150 161/112/141 160/98/140
f 148/97/151 145/96/151 146/87/151 151/92/151
f 193/86/152 192/91/152 151/92/152 146/87/152
f 168/136/45 167/186/153 170/187/153 169/137/46
f 167/186/154 166/122/34 171/126/36 170/187/155
f 174/138/47 173/188/156 185/189/157 184/139/48
f 173/188/158 172/128/37 186/121/33 185/189/159
f 174/138/160 124/140/161 125/184/161 177/190/162
f 180/191/163 177/190/164 125/184/165 127/185/165
f 127/185/166 130/142/166 183/143/167 180/191/168
f 169/137/54 170/187/169 188/192/170 187/144/53
f 170/187/155 171/126/36 189/124/35 188/192/171
f 172/128/37 173/188/158 176/193/172 175/129/38
f 173/188/173 174/138/160 177/190/162 176/193/173
f 175/129/38 176/193/172 179/194/174 178/131/40
f 176/193/175 177/190/164 180/191/163 179/194/175
f 178/131/40 179/194/174 182/195/176 181/130/39
f 179/194/177 180/191/168 183/143/167 182/195/177
f 166/122/34 167/186/154 185/189/159 186/121/33
f 167/186/178 168/136/50 184/139/48 185/189/157
f 181/130/39 182/195/176 188/192/171 189/124/35
f 182/195/179 183/143/52 187/144/53 188/192/170
f 190/94/180 192/91/180 193/86/180 195/103/180
f 190/94/181 191/90/181 192/91/181
f 193/86/182 194/84/182 195/103/182
