# Blender v2.82 (sub 7) OBJ File: ''
# www.blender.org
mtllib platform.mtl
o Roue_2_Mesh.002
v -0.000004 -0.032107 0.000001
v 2.208584 -0.033025 -1.609125
v -0.941118 -0.032107 -2.896448
v -2.463870 -0.032107 -1.790104
v -2.890447 -0.032107 -0.015465
v -0.990672 -0.032108 3.041932
v 0.941109 -0.032108 2.896450
v 3.045502 -0.032107 0.000001
v 2.459906 -0.386758 -1.904834
v 2.439938 -0.032107 -1.879097
v -0.870472 -0.386758 -2.986938
v -0.869454 -0.032107 -2.954383
v -0.869841 -0.034587 -2.966841
v -0.870472 -0.064665 -2.986938
v -1.051452 -0.386758 -2.928134
v -2.459906 -0.386758 -1.904834
v -1.051452 -0.064665 -2.928134
v -1.040150 -0.034587 -2.911505
v -1.033148 -0.032107 -2.901194
v -2.439946 -0.032107 -1.879097
v -2.447581 -0.034587 -1.888946
v -2.459906 -0.064665 -1.904834
v -2.571757 -0.386758 -1.750882
v -2.954676 -0.386759 -0.110612
v -2.571757 -0.064665 -1.750882
v -2.552840 -0.034587 -1.744071
v -2.541115 -0.032107 -1.739849
v -2.923401 -0.032107 -0.101524
v -2.935368 -0.034587 -0.105002
v -2.954676 -0.064665 -0.110612
v -2.954676 -0.064664 0.079681
v -2.935368 -0.034587 0.074072
v -2.923401 -0.032107 0.070595
v -1.101007 -0.386758 3.073616
v -1.082703 -0.032108 3.046677
v -1.101007 -0.064665 3.073616
v -0.920027 -0.386758 3.132421
v 0.870472 -0.386759 2.986939
v -0.920027 -0.064665 3.132421
v -0.919008 -0.032108 3.099866
v 0.869445 -0.032108 2.954384
v 0.870472 -0.064665 2.986939
v 1.051452 -0.386759 2.928134
v 1.051452 -0.064665 2.928134
v 1.033139 -0.032108 2.901195
v 3.109736 -0.386759 0.095147
v 3.078455 -0.032107 0.086060
v 2.571757 -0.386758 -1.750882
v 3.109736 -0.386759 -0.095147
v 2.541106 -0.032107 -1.739850
v 3.078455 -0.032107 -0.086059
v 2.433890 -0.034948 1.875410
v 2.451597 -0.386758 1.910871
v 2.455622 -0.386288 1.901572
v 2.455622 -0.065173 1.901572
v 2.451597 -0.064665 1.910871
v 2.567331 -0.407877 1.747816
v 2.574933 -0.408386 1.741114
v 2.436952 -0.409201 1.866998
v 2.528870 0.014637 1.729835
v 2.528683 0.009582 1.738590
v 2.528599 -0.430834 1.739945
v 1.076970 -0.386758 -2.909596
v 1.033718 -0.383886 -2.902048
v 1.033139 -0.387482 -2.901194
v 1.044273 -0.032107 -2.922757
v 1.016741 -0.063939 -2.942759
v 0.869455 -0.386589 -2.954720
v 0.838930 -0.386758 -2.986938
v 0.783416 -0.034587 -2.966841
v 0.814324 -0.064816 -2.954642
v 0.782172 -0.032107 -2.954383
v 0.783802 -0.064664 -2.986938
v -2.953817 -0.389213 0.079432
v 0.762422 0.029261 -2.765719
v 0.816531 -0.000779 -2.834411
v 0.834874 -0.000752 -2.817013
v 0.834874 -0.388163 -2.817013
v 0.816531 -0.388135 -2.834411
v 2.411220 -0.427992 1.762884
v 2.428515 -0.431754 1.740708
v 2.397680 -0.029826 1.735974
v 2.425515 -0.029115 1.739377
v 2.409674 -0.037164 1.762265
v -2.416014 -0.318208 1.742648
v -2.400296 -0.330602 1.738877
v -2.400364 0.043428 1.738885
v -2.411348 0.056071 1.538438
v -2.415883 0.043630 1.742600
v -2.423249 0.053560 1.733437
v -2.442139 0.023489 1.740339
v -2.320751 -0.297033 1.896730
v -2.319634 -0.298581 1.911888
v -2.302802 -0.330602 1.872388
v -2.299488 0.056056 1.886334
v -2.299232 0.053729 1.877282
v -2.302837 0.043249 1.872443
v -2.319621 0.023511 1.911900
v -2.320749 0.023116 1.896726
v -2.066620 0.083730 1.477091
v -2.441347 -0.300386 1.740100
v -2.048219 -0.330602 1.495795
v -2.056357 -0.330602 1.491936
v -2.032669 -0.330844 1.485095
v -2.048235 -0.330602 1.504801
v -2.299284 0.054198 1.879107
vt 0.441573 0.781706
vt 0.439088 0.782195
vt 0.396507 0.757878
vt 0.395547 0.755438
vt 0.393276 0.754501
vt 0.375293 0.708823
vt 0.375799 0.706047
vt 0.427074 0.610914
vt 0.429183 0.609157
vt 0.481004 0.610380
vt 0.483058 0.611909
vt 0.546418 0.690695
vt 0.547518 0.693016
vt 0.535639 0.740038
vt 0.525738 0.736936
vt 0.485623 0.611557
vt 0.527397 0.637710
vt 0.527111 0.641954
vt 0.534346 0.629853
vt 0.535685 0.630609
vt 0.527863 0.636457
vt 0.541145 0.636105
vt 0.541670 0.637461
vt 0.531018 0.642730
vt 0.533480 0.743751
vt 0.498556 0.777478
vt 0.489116 0.774527
vt 0.443613 0.783198
vt 0.531014 0.642940
vt 0.547363 0.688374
vt 0.374336 0.704090
vt 0.379482 0.660629
vt 0.389865 0.655159
vt 0.389887 0.639619
vt 0.424818 0.610548
vt 0.367733 0.653364
vt 0.377305 0.656293
vt 0.377124 0.656433
vt 0.438937 0.782529
vt 0.396322 0.758188
vt 0.438530 0.783490
vt 0.395759 0.759055
vt 0.392983 0.754714
vt 0.374966 0.709001
vt 0.392149 0.755319
vt 0.374017 0.709471
vt 0.429142 0.607839
vt 0.481128 0.609067
vt 0.557619 0.694162
vt 0.545235 0.743958
vt 0.435582 0.792235
vt 0.390050 0.766557
vt 0.385036 0.760910
vt 0.365196 0.713026
vt 0.428410 0.598679
vt 0.483078 0.599807
vt 0.541728 0.749825
vt 0.443559 0.784599
vt 0.442592 0.793908
vt 0.363749 0.706353
vt 0.372891 0.704256
vt 0.421384 0.600640
vt 0.424351 0.609279
vt 0.489925 0.602007
vt 0.486229 0.610365
vt 0.557365 0.687162
vt 0.443608 0.783561
vt 0.373971 0.704098
vt 0.527744 0.636321
vt 0.541988 0.637692
vt 0.534142 0.629502
vt 0.506337 0.784591
vt 0.489441 0.780259
vt 0.489424 0.780620
vt 0.489426 0.781657
vt 0.492359 0.790629
vt 0.505295 0.785367
vt 0.498333 0.778440
vt 0.490283 0.781069
vt 0.493522 0.790092
vt 0.491061 0.776600
vt 0.496516 0.788069
vt 0.491660 0.776056
vt 0.502600 0.785688
vt 0.497022 0.787760
vt 0.528166 0.641684
vt 0.527697 0.641008
vt 0.538888 0.633693
vt 0.538198 0.633076
vt 0.377265 0.656741
vt 0.389521 0.639882
vt 0.382070 0.632394
vt 0.383181 0.632083
vt 0.389270 0.638755
vt 0.389779 0.639876
vt 0.389798 0.639810
vt 0.378359 0.645190
vt 0.378471 0.645038
vt 0.378313 0.645385
vt 0.376271 0.656779
vt 0.389389 0.638437
vt 0.367461 0.654293
vt 0.383400 0.631531
vt 0.367917 0.652812
vt 0.377913 0.645040
vt 0.456967 0.694532
vn -0.0172 0.9998 -0.0046
vn -0.0006 1.0000 -0.0008
vn -0.0000 1.0000 0.0000
vn -0.0010 1.0000 -0.0002
vn -0.0009 1.0000 -0.0002
vn -0.0087 0.9992 -0.0379
vn 0.0318 0.9994 0.0158
vn 0.0001 1.0000 0.0010
vn 0.0000 1.0000 0.0009
vn -0.0069 1.0000 -0.0031
vn 0.0006 1.0000 -0.0007
vn 0.0010 1.0000 -0.0013
vn 0.0158 0.9999 0.0057
vn 0.0005 1.0000 0.0008
vn 0.0000 1.0000 0.0001
vn -0.0055 1.0000 -0.0023
vn 0.9234 -0.0111 -0.3836
vn 0.9705 -0.0011 -0.2411
vn 0.9234 0.0114 -0.3836
vn 0.0049 -0.0054 1.0000
vn -0.0794 -0.0105 0.9968
vn -0.2079 0.6100 0.7646
vn 0.0315 0.9995 0.0104
vn 0.0314 0.9995 0.0101
vn -0.0026 1.0000 0.0010
vn -0.0359 0.9993 -0.0106
vn -0.0137 0.9999 -0.0058
vn -0.0122 0.9999 -0.0055
vn -0.0246 0.9964 -0.0813
vn -0.0269 0.9965 -0.0796
vn 0.0291 0.9995 -0.0157
vn 0.0615 0.9976 0.0314
vn 0.0607 0.9977 0.0318
vn 0.3270 -0.0192 0.9448
vn 0.6915 0.1726 0.7015
vn 0.2743 0.0987 0.9566
vn -0.2250 0.9236 -0.3105
vn -0.2258 0.9236 -0.3099
vn -0.5866 0.0140 -0.8098
vn -0.5888 0.0140 -0.8081
vn -0.3761 0.9223 -0.0890
vn -0.3727 0.9239 -0.0871
vn -0.9730 0.0139 -0.2305
vn -0.9736 0.0140 -0.2278
vn 0.0780 0.0139 0.9969
vn 0.0806 0.0139 0.9966
vn 0.9514 -0.0145 -0.3077
vn 0.9498 -0.0139 -0.3126
vn -0.5866 -0.0145 -0.8097
vn -0.5888 -0.0146 -0.8081
vn -0.9730 -0.0145 -0.2305
vn -0.9736 -0.0145 -0.2278
vn 0.0779 -0.0145 0.9969
vn 0.0806 -0.0145 0.9966
vn 0.5929 -0.0474 -0.8039
vn -0.0014 0.0139 -0.9999
vn -0.0014 -0.0147 -0.9999
vn -0.9463 -0.1236 0.2986
vn -0.9558 0.0058 0.2939
vn -0.6858 -0.0331 0.7270
vn -0.6875 0.0057 0.7262
vn 0.5866 -0.0145 0.8097
vn 0.5866 0.0140 0.8097
vn 0.9514 -0.0108 0.3078
vn -0.0005 0.9235 -0.3835
vn -0.3456 0.9366 0.0573
vn 0.5882 0.0140 0.8086
vn 0.9508 -0.0174 0.3094
vn 0.5882 -0.0146 0.8086
vn 0.5887 -0.0491 -0.8069
vn -0.0359 0.9993 -0.0119
vn 0.0013 0.9235 -0.3835
vn 0.0012 0.0140 -0.9999
vn 0.0012 -0.0146 -0.9999
vn -0.6952 -0.1278 -0.7074
vn -0.8299 0.1545 -0.5362
vn 0.9715 0.1677 -0.1677
vn 0.9779 0.1683 -0.1237
vn 0.9871 0.1600 -0.0084
vn 0.9486 0.0546 0.3117
vn -0.4879 0.0353 -0.8722
vn -0.4325 -0.0764 -0.8984
vn -0.4245 -0.0759 -0.9023
vn -0.0974 0.3455 0.9334
vn 0.6847 0.7107 -0.1612
vn 0.0279 -0.0087 0.9996
vn 0.9931 -0.0297 -0.1132
vn -0.2613 0.9648 0.0309
vn -0.8775 -0.1427 -0.4579
vn -0.8771 -0.1478 -0.4570
vn -0.8276 -0.0001 -0.5613
vn -0.8261 0.0003 -0.5635
vn -0.4895 0.8611 -0.1372
vn -0.5011 0.8346 -0.2287
vn -0.9883 -0.1524 0.0038
vn -0.4107 0.2204 0.8847
vn -0.9546 0.0322 0.2962
vn -0.6907 0.0325 0.7224
vn -0.9479 -0.1065 0.3001
vn -0.6907 -0.0058 0.7231
vn 0.6915 0.1732 0.7013
vn -0.0256 -0.9996 0.0155
vn -0.8428 0.5378 -0.0194
vn 0.0068 1.0000 -0.0033
vn -0.8599 0.4383 -0.2615
usemtl lambert1
s 1
f 3/1/1 19/2/2 20/3/2 4/4/3
f 4/4/3 27/5/4 28/6/5 5/7/6
f 6/8/7 40/9/8 41/10/9 7/11/3
f 8/12/10 51/13/11 50/14/12 2/15/13
f 7/11/3 45/16/14 52/17/15 82/18/16
f 54/19/17 59/20/18 52/17/15 55/21/19
f 62/22/20 57/23/21 61/24/22
f 2/15/13 10/25/23 66/26/24 75/27/25
f 75/27/25 12/28/26 3/1/1
f 82/18/16 60/29/27 47/30/28 8/12/10
f 5/7/6 33/31/29 88/32/30 100/33/31
f 100/33/31 95/34/32 35/35/33 6/8/7
f 85/36/34 87/37/35 89/38/36
f 19/2/2 18/39/37 21/40/38 20/3/2
f 21/40/38 18/39/37 17/41/39 22/42/40
f 27/5/4 26/43/41 29/44/42 28/6/5
f 29/44/42 26/43/41 25/45/43 30/46/44
f 41/10/9 40/9/8 39/47/45 42/48/46
f 50/14/12 51/13/11 49/49/47 48/50/48
f 22/42/40 17/41/39 15/51/49 16/52/50
f 30/46/44 25/45/43 23/53/51 24/54/52
f 42/48/46 39/47/45 37/55/53 38/56/54
f 10/25/23 50/14/12 48/50/48 9/57/55
f 17/41/39 14/58/56 11/59/57 15/51/49
f 22/42/40 16/52/50 23/53/51 25/45/43
f 30/46/44 24/54/52 74/60/58 31/61/59
f 34/62/60 37/55/53 39/47/45 36/63/61
f 42/48/46 38/56/54 43/64/62 44/65/63
f 51/13/11 47/30/28 46/66/64 49/49/47
f 2/15/13 50/14/12 10/25/23
f 3/1/1 12/28/26 19/2/2
f 4/4/3 20/3/2 27/5/4
f 5/7/6 28/6/5 33/31/29
f 6/8/7 35/35/33 40/9/8
f 7/11/3 41/10/9 45/16/14
f 8/12/10 47/30/28 51/13/11
f 19/2/2 12/28/26 13/67/65 18/39/37
f 13/67/65 14/58/56 17/41/39 18/39/37
f 27/5/4 20/3/2 21/40/38 26/43/41
f 21/40/38 22/42/40 25/45/43 26/43/41
f 33/31/29 28/6/5 29/44/42 32/68/66
f 29/44/42 30/46/44 31/61/59 32/68/66
f 40/9/8 35/35/33 36/63/61 39/47/45
f 45/16/14 41/10/9 42/48/46 44/65/63
f 52/17/15 56/69/67 55/21/19
f 52/17/15 45/16/14 44/65/63 56/69/67
f 46/66/64 47/30/28 60/29/27 58/70/68
f 56/69/67 44/65/63 43/64/62 53/71/69
f 56/69/67 53/71/69 54/19/17 55/21/19
f 57/23/21 58/70/68 60/29/27 61/24/22
f 66/26/24 10/25/23 9/57/55 63/72/70
f 72/73/71 70/74/72 13/67/65 12/28/26
f 14/58/56 13/67/65 70/74/72 73/75/73
f 11/59/57 14/58/56 73/75/73 69/76/74
f 66/26/24 63/72/70 64/77/75 67/78/76
f 73/75/73 70/74/72 71/79/77
f 71/79/77 70/74/72 72/73/71
f 68/80/78 69/76/74 73/75/73 71/79/77
f 68/80/78 71/79/77 76/81/79 79/82/80
f 77/83/81 67/78/76 65/84/82 78/85/83
f 75/27/25 66/26/24 67/78/76 77/83/81
f 76/81/79 71/79/77 72/73/71 75/27/25
f 76/81/79 77/83/81 78/85/83 79/82/80
f 83/86/84 82/18/16 84/87/85
f 61/24/22 60/29/27 82/18/16 83/86/84
f 81/88/86 62/22/20 61/24/22 83/86/84
f 84/87/85 52/17/15 59/20/18 80/89/87
f 82/18/16 52/17/15 84/87/85
f 83/86/84 84/87/85 80/89/87 81/88/86
f 100/33/31 88/32/30 87/37/35
f 90/90/88 89/38/36 87/37/35 88/32/30
f 97/91/89 94/92/90 92/93/91 99/94/92
f 97/91/89 96/95/93 100/33/31
f 96/95/93 106/96/94 95/34/32 100/33/31
f 100/33/31 102/97/95 105/98/95
f 100/33/31 103/99/96 102/97/95
f 33/31/29 32/68/66 90/90/88 88/32/30
f 90/90/88 32/68/66 31/61/59 91/100/97
f 36/63/61 35/35/33 95/34/32 98/101/98
f 91/100/97 31/61/59 74/60/58 101/102/99
f 34/62/60 36/63/61 98/101/98 93/103/100
f 97/91/89 100/33/31 105/98/95 94/92/90
f 103/99/96 100/33/31 87/37/35 86/104/101
f 104/105/102 105/98/95 102/97/95
f 104/105/102 102/97/95 103/99/96
f 89/38/36 90/90/88 91/100/97
f 99/94/92 92/93/91 93/103/100 98/101/98
f 106/96/103 99/94/92 98/101/98 95/34/32
f 8/12/10 2/15/13 1/106/104
f 82/18/16 8/12/10 1/106/104
f 7/11/3 82/18/16 1/106/104
f 6/8/7 7/11/3 1/106/104
f 100/33/31 6/8/7 1/106/104
f 5/7/6 100/33/31 1/106/104
f 4/4/3 5/7/6 1/106/104
f 3/1/1 4/4/3 1/106/104
f 75/27/25 3/1/1 1/106/104
f 2/15/13 75/27/25 1/106/104
f 87/37/35 85/36/34 86/104/101
f 96/95/93 97/91/89 99/94/92 106/96/105
f 12/28/26 75/27/25 72/73/71
f 76/81/79 75/27/25 77/83/81
f 85/36/34 89/38/36 91/100/97 101/102/99
