# Blender v2.82 (sub 7) OBJ File: ''
# www.blender.org
mtllib wheel.mtl
o pasted__Roue_Mesh.036
v -0.292757 0.000000 -0.037009
v 0.228428 0.000000 -0.037010
v -0.292304 4.015677 -0.900843
v 0.228428 4.004165 -0.915053
v -0.292757 2.072424 3.499848
v 0.228429 2.068313 3.504683
v -0.292757 -0.402285 4.042508
v 0.228428 -0.402285 4.042508
v -0.292757 -2.569118 2.884760
v 0.228428 -2.437732 2.756149
v -0.292757 -4.004165 0.841033
v 0.228428 -4.004165 0.841032
v -0.292757 -2.072425 -3.573866
v 0.228428 -2.072425 -3.573866
v -0.292757 2.723336 -3.100950
v 0.228428 2.723336 -3.100950
v -0.289421 4.089044 -0.810283
v -0.248937 4.116048 -0.808477
v 0.184606 4.116048 -0.808477
v 0.201375 4.112717 -0.808698
v -0.248937 2.226630 3.509696
v -0.292757 2.194793 3.479556
v 0.228428 2.194793 3.479555
v 0.184606 2.226630 3.509696
v -0.292757 1.994904 3.596679
v -0.248937 2.005635 3.639187
v -0.248937 -0.283319 4.141118
v -0.292757 -0.291361 4.098019
v 0.184606 2.005635 3.639187
v 0.228428 1.994904 3.596679
v 0.228428 -0.291361 4.098019
v 0.184606 -0.283319 4.141118
v -0.292757 -0.521919 4.075282
v -0.248937 -0.538223 4.115979
v -0.248937 -2.530833 3.034462
v -0.292757 -2.512004 2.994868
v 0.184606 -0.538223 4.115979
v 0.228428 -0.521919 4.075282
v 0.228428 -2.512004 2.994867
v 0.184606 -2.530833 3.034462
v -0.292757 -2.685165 2.840956
v -0.248828 -4.062761 0.979055
v -0.292757 -4.022681 0.963685
v 0.184606 -2.722278 2.864299
v 0.228428 -2.685165 2.840956
v 0.228428 -4.022681 0.963684
v 0.184606 -4.061184 0.984650
v -0.292757 -4.072304 0.737386
v -0.265707 -4.112717 0.734678
v -0.248937 -4.116048 0.734456
v 0.184606 -4.116048 0.734456
v 0.228428 -4.072304 0.737386
v -0.248937 -2.226631 -3.583715
v -0.292757 -2.194793 -3.553574
v 0.228428 -2.194793 -3.553574
v 0.184606 -2.226631 -3.583715
v -0.292757 -1.994905 -3.670698
v -0.248937 -2.005635 -3.713206
v 0.184606 -2.005635 -3.713206
v 0.228428 -1.994905 -3.670698
v -0.248937 2.685049 -3.250654
v -0.289421 2.673426 -3.226210
v 0.201375 2.683617 -3.247638
v 0.184606 2.685049 -3.250654
v -0.248937 4.061184 -1.058669
v -0.289421 4.037415 -1.045728
v -0.289421 2.853585 -3.066079
v -0.248937 2.876495 -3.080489
v 0.201375 4.058252 -1.057073
v 0.184606 4.061184 -1.058669
v 0.184606 2.876495 -3.080489
v 0.201375 2.873670 -3.078713
v -0.248937 -2.577110 3.010647
v -0.292757 -2.554607 2.972944
v 0.184606 -2.519935 2.938313
v 0.228428 -2.496628 2.901324
v -0.248937 -2.693198 2.907463
v -0.292757 -2.658395 2.880692
v 0.184606 -2.620863 2.848604
v 0.228428 -2.586863 2.821119
v -0.248937 0.269817 -4.212176
v -0.247678 0.285855 -4.201548
v 0.183245 0.285855 -4.201548
v 0.184606 0.269817 -4.212176
v -0.277249 0.532683 -4.176446
v -0.278048 0.550889 -4.184458
v -0.318565 0.540565 -4.159273
v 0.264295 0.549632 -4.181365
v 0.259001 0.532127 -4.174790
v 0.247525 0.550889 -4.184458
v 0.245723 0.532005 -4.175227
v 0.291346 0.521052 -4.128035
v 0.277742 0.510634 -4.136798
v -0.308263 0.510634 -4.136798
v -0.321868 0.521052 -4.128035
v 0.228374 0.280735 -4.167692
v -0.278983 0.296545 -4.165250
v -0.292712 0.279948 -4.167811
v 0.214654 0.296545 -4.165250
v -0.248937 3.890250 1.481304
v -0.247556 3.843331 1.517980
v -0.289421 3.863365 1.478298
v 0.182618 3.870710 1.571673
v 0.201375 3.914093 1.534550
v 0.184606 3.917402 1.534969
v -0.248937 3.755203 1.789947
v -0.292757 3.720561 1.762961
v -0.250083 3.749741 1.730132
v 0.228428 3.671700 1.817933
v 0.185753 3.700444 1.785594
v 0.184606 3.705906 1.845409
v -0.248937 -2.712773 2.878408
v 0.312564 3.449092 1.665115
v 0.270597 3.581722 1.676088
v 0.270633 3.580621 1.642078
v -0.292757 3.418757 1.662162
v -0.292757 3.469866 1.683747
v -0.292757 3.467678 1.649789
v -0.250826 3.580621 1.642078
v -0.250791 3.581722 1.676088
v -0.321633 0.398723 -4.001739
v -0.304438 0.382592 -4.039223
v -0.309502 0.420369 -4.036790
v 0.231498 0.397562 -4.001541
v 0.226119 0.419756 -4.036112
v 0.214821 0.382126 -4.039904
v -0.248937 -4.077457 -1.634794
v -0.248455 -4.033627 -1.672184
v -0.265707 -4.074143 -1.634736
v -0.292757 -4.033950 -1.630916
v -0.292757 -4.005911 -1.663685
v 0.181923 -4.033486 -1.672165
v 0.228428 -4.019930 -1.647301
v 0.184606 -4.077457 -1.634816
v -0.246987 -3.958891 -1.899798
v -0.248937 -3.959792 -1.926136
v -0.291546 -3.942034 -1.878049
v -0.292198 -3.932917 -1.895428
v 0.227543 -3.937475 -1.886738
v 0.184606 -3.959789 -1.926139
v 0.182805 -3.958885 -1.899793
v -0.292757 -3.883036 -1.692305
v -0.292757 -3.893178 -1.651496
v -0.292757 -3.933512 -1.641325
v -0.292757 -3.828213 -1.605484
v 0.228428 -3.777140 -1.694804
v 0.077954 -2.676250 2.894063
v 0.095309 -2.564938 3.001022
v 0.228428 -0.399878 4.043712
v 0.228429 -0.430592 4.050262
vt 0.393295 0.791093
vt 0.393295 0.791093
vt 0.442684 0.817511
vt 0.442684 0.817511
vt 0.480654 0.867717
vt 0.480615 0.867580
vt 0.447429 0.821667
vt 0.447193 0.821323
vt 0.312455 0.967376
vt 0.379955 0.892535
vt 0.280423 0.913636
vt 0.328690 0.806025
vt 0.389866 0.792859
vt 0.389926 0.792888
vt 0.379955 0.892535
vt 0.389926 0.792888
vt 0.328588 0.806143
vt 0.390627 0.792699
vt 0.440376 0.824309
vt 0.443632 0.821168
vt 0.479201 0.871088
vt 0.479201 0.871088
vt 0.473574 0.933029
vt 0.431322 0.978927
vt 0.474840 0.930847
vt 0.280708 0.913983
vt 0.312455 0.967376
vt 0.429666 0.982331
vt 0.429666 0.982331
vt 0.373267 0.994519
vt 0.373267 0.994519
vt 0.431322 0.978927
vt 0.370101 0.989374
vt 0.370072 0.989379
vt 0.372870 0.994259
vt 0.372870 0.994259
vt 0.372605 0.993373
vt 0.372605 0.993373
vt 0.366752 0.993646
vt 0.366769 0.993616
vt 0.367298 0.992678
vt 0.367298 0.992678
vt 0.294466 0.850959
vt 0.295218 0.851031
vt 0.284016 0.853241
vt 0.284694 0.854553
vt 0.291206 0.851522
vt 0.291206 0.851522
vt 0.288101 0.846555
vt 0.288236 0.848016
vt 0.287014 0.849371
vt 0.286879 0.847910
vt 0.481974 0.873691
vt 0.481974 0.873691
vt 0.479928 0.932476
vt 0.479592 0.931869
vt 0.435144 0.979168
vt 0.434355 0.978432
vt 0.477548 0.937717
vt 0.478101 0.938680
vt 0.476199 0.932968
vt 0.477661 0.937505
vt 0.478079 0.938036
vt 0.386977 0.790479
vt 0.330243 0.802740
vt 0.330509 0.803778
vt 0.387176 0.791532
vt 0.387176 0.791532
vt 0.330509 0.803778
vt 0.330243 0.802740
vt 0.386977 0.790479
vt 0.392891 0.792088
vt 0.442217 0.818478
vt 0.442217 0.818478
vt 0.392891 0.792088
vt 0.479660 0.868092
vt 0.446509 0.822237
vt 0.309226 0.966524
vt 0.279884 0.917175
vt 0.279295 0.917491
vt 0.308658 0.966876
vt 0.279295 0.917491
vt 0.279368 0.917452
vt 0.308728 0.966833
vt 0.308658 0.966876
vt 0.277935 0.911379
vt 0.277935 0.911379
vt 0.324766 0.805903
vt 0.324766 0.805903
vt 0.443831 0.818093
vt 0.443529 0.818328
vt 0.446288 0.820940
vt 0.446708 0.820613
vt 0.435144 0.979168
vt 0.313404 0.971033
vt 0.313404 0.971033
vt 0.278604 0.911423
vt 0.278018 0.911385
vt 0.325555 0.806639
vt 0.325555 0.806639
vt 0.446509 0.822237
vt 0.445845 0.821267
vt 0.443273 0.819014
vt 0.441836 0.820763
vt 0.444072 0.822722
vt 0.480890 0.873620
vt 0.479660 0.868092
vt 0.480890 0.873620
vt 0.429400 0.981293
vt 0.434355 0.978432
vt 0.429400 0.981293
vt 0.313692 0.970435
vt 0.313439 0.970959
vt 0.481892 0.873686
vt 0.444915 0.822051
vt 0.442413 0.819859
vt 0.373016 0.993435
vt 0.372996 0.993432
vt 0.366556 0.993227
vt 0.366300 0.993842
vt 0.366766 0.993606
vt 0.366332 0.993766
vt 0.367040 0.992464
vt 0.366300 0.993842
vt 0.370472 0.990294
vt 0.370483 0.990311
vt 0.283532 0.855449
vt 0.284198 0.855522
vt 0.282941 0.854148
vt 0.287738 0.848569
vt 0.282859 0.854138
vt 0.288949 0.847226
vt 0.294005 0.851333
vt 0.291179 0.850691
vt 0.291179 0.850691
vt 0.293951 0.850504
vt 0.369536 0.990235
vt 0.369551 0.990218
vt 0.367040 0.992464
vt 0.479932 0.932476
vt 0.481018 0.931563
vt 0.480936 0.931562
vt 0.481018 0.931564
vt 0.479940 0.931468
vt 0.479245 0.932269
vt 0.478101 0.938679
vt 0.477435 0.937929
vt 0.478079 0.938036
vt 0.477450 0.931723
vt 0.476450 0.931971
vn 0.0074 -0.4741 0.8804
vn -0.0073 -0.4741 0.8804
vn -0.0071 -0.4787 0.8779
vn 0.0057 -0.4810 0.8767
vn -0.0003 -0.8183 0.5749
vn 0.0076 -0.8165 0.5773
vn 0.0096 -0.8100 0.5863
vn 0.0234 -0.7061 0.7077
vn -1.0000 0.0050 0.0040
vn -1.0000 -0.0002 0.0011
vn -1.0000 0.0007 0.0000
vn 1.0000 0.0000 0.0000
vn 1.0000 -0.0005 0.0006
vn -1.0000 -0.0000 0.0000
vn 1.0000 -0.0001 -0.0000
vn -1.0000 -0.0058 -0.0004
vn 0.9999 0.0061 -0.0155
vn 1.0000 -0.0006 0.0007
vn 1.0000 -0.0024 0.0070
vn 0.0029 -0.2156 -0.9765
vn -0.0074 -0.2155 -0.9765
vn -0.0074 -0.2136 -0.9769
vn 0.0023 -0.2136 -0.9769
vn 1.0000 -0.0001 0.0030
vn -1.0000 0.0054 0.0062
vn 0.0001 0.9660 -0.2585
vn -0.0001 0.9662 -0.2578
vn -0.0042 0.8710 -0.4913
vn 0.0042 0.8710 -0.4913
vn -0.0001 -0.8999 -0.4360
vn 0.0001 -0.8739 -0.4861
vn 0.0398 -0.7578 -0.6513
vn -0.0026 -0.7442 -0.6679
vn 1.0000 -0.0024 0.0015
vn -1.0000 0.0000 -0.0001
vn -0.1270 0.0505 0.9906
vn -0.1718 -0.0745 0.9823
vn -0.0647 0.3382 0.9388
vn 0.0062 0.3609 0.9326
vn 0.0075 0.7482 0.6635
vn 0.0763 0.5112 -0.8561
vn 0.0670 0.5051 -0.8605
vn -0.0074 0.7482 0.6634
vn -0.0067 -0.8927 0.4506
vn -0.0074 -0.9998 -0.0167
vn 0.0074 -0.9998 -0.0167
vn 0.9993 -0.0167 0.0335
vn 0.9993 -0.0228 0.0281
vn 1.0000 -0.0006 0.0008
vn -0.9999 -0.0122 -0.0009
vn 0.9999 -0.0048 0.0141
vn -0.0314 0.0138 -0.9994
vn -0.0420 -0.0267 -0.9988
vn -0.0380 0.0342 -0.9987
vn 0.0074 -0.6914 -0.7224
vn 1.0000 -0.0006 -0.0006
vn 0.9807 -0.1353 -0.1411
vn 0.0074 -0.6912 -0.7226
vn 0.1295 -0.8637 0.4872
vn -0.0000 -0.8348 0.5505
vn 0.0000 -0.6405 0.7680
vn -0.0074 0.2128 0.9771
vn -0.0074 0.2155 0.9765
vn -1.0000 0.0002 0.0009
vn 1.0000 0.0002 0.0010
vn 0.0074 0.2155 0.9765
vn 0.0074 0.2129 0.9771
vn -1.0000 -0.0005 0.0009
vn -1.0000 -0.0004 0.0008
vn 1.0000 -0.0007 0.0012
vn 1.0000 -0.0005 0.0009
vn 1.0000 -0.0009 0.0006
vn 1.0000 -0.0010 0.0008
vn -0.9236 0.3306 -0.1943
vn -0.9236 0.3311 -0.1934
vn -0.0074 0.8635 -0.5044
vn -0.0074 0.8621 -0.5067
vn 0.0074 0.8635 -0.5044
vn 0.3825 0.7978 -0.4660
vn 0.3825 0.7966 -0.4682
vn 0.0074 0.8621 -0.5067
vn -0.0419 0.9950 0.0902
vn -0.0272 0.9956 0.0897
vn 0.0073 0.7465 0.6654
vn -0.0075 0.7465 0.6654
vn 0.0433 -0.6773 0.7344
vn 0.2436 -0.8665 0.4357
vn 0.1527 -0.4516 0.8791
vn 0.0551 -0.6540 0.7545
vn -0.0074 -0.6914 -0.7224
vn 0.0040 0.4019 -0.9157
vn -0.0053 0.4019 -0.9157
vn -0.9985 0.0538 -0.0118
vn -0.9235 0.3817 0.0371
vn 0.3826 0.9207 0.0771
vn -1.0000 0.0008 0.0007
vn 0.9998 -0.0080 0.0159
vn 0.9993 -0.0159 0.0339
vn -1.0000 -0.0008 0.0005
vn -0.9978 -0.0531 0.0409
vn -0.9977 -0.0344 0.0576
vn 0.9877 -0.1498 -0.0446
vn 0.9895 0.0404 0.1390
vn -1.0000 -0.0009 0.0000
vn -1.0000 -0.0009 0.0006
vn 1.0000 -0.0009 0.0000
vn -0.9999 -0.0124 -0.0018
vn -1.0000 -0.0006 -0.0007
vn 1.0000 -0.0000 -0.0003
vn -0.9138 0.1735 -0.3672
vn 0.3349 0.3869 -0.8592
vn -0.4521 -0.7287 0.5144
vn -0.3817 -0.9242 -0.0154
vn 0.3698 -0.0154 0.9290
vn 0.3906 -0.9205 -0.0100
vn -0.9811 0.1674 -0.0967
vn 0.9820 0.1597 -0.1007
vn -0.9316 0.1557 -0.3284
vn -0.0086 0.4002 -0.9164
vn -0.4112 -0.5122 -0.7540
vn 0.0006 -0.9226 -0.3858
vn 0.4304 0.3717 -0.8225
vn 0.9999 -0.0047 0.0140
vn 0.0112 0.4003 -0.9163
vn -0.0160 0.7438 -0.6682
vn 0.0032 0.7996 -0.6006
vn 0.0001 -0.9002 -0.4354
vn -0.0001 -0.9000 -0.4360
vn -0.1272 0.0501 0.9906
vn -0.0431 0.9948 0.0925
vn -0.9230 0.3829 0.0391
vn 0.3832 0.9202 0.0794
vn -0.0903 -0.1104 0.9898
vn 0.9995 0.0118 -0.0298
vn -1.0000 0.0017 0.0012
vn -0.0282 0.9954 0.0921
vn 0.9993 -0.0150 0.0347
vn -1.0000 0.0000 0.0001
vn 0.1277 0.6054 -0.7856
vn 0.0614 0.5054 -0.8607
vn -0.0043 -0.7294 -0.6841
vn 0.0006 -0.7412 -0.6713
vn -0.9999 0.0101 0.0080
vn -0.0002 -0.1377 -0.9905
vn -0.0074 -0.9998 -0.0182
vn -0.3824 -0.9238 -0.0173
vn -0.0377 0.0342 -0.9987
vn 1.0000 -0.0006 -0.0000
vn 0.0074 -0.9998 -0.0181
vn -1.0000 -0.0010 0.0000
vn -0.0381 0.0342 -0.9987
vn -0.0383 0.0343 -0.9987
vn -0.0136 0.0453 -0.9989
vn 0.0002 -0.1379 -0.9904
vn -0.0140 -0.9993 0.0351
vn -0.0013 -0.9994 0.0343
vn -0.6133 -0.7818 -0.1124
vn 0.0140 -0.9993 0.0352
vn 0.0014 -0.9994 0.0343
vn 0.6133 -0.7818 -0.1124
vn -0.0074 -0.6911 -0.7227
vn -0.9807 -0.1352 -0.1411
vn -0.0419 -0.0252 -0.9988
vn -0.0519 -0.1889 -0.9806
vn 0.2228 -0.9349 0.2764
vn 0.1294 -0.8637 0.4872
vn 0.1293 -0.8635 0.4875
vn -0.9902 -0.1353 -0.0339
usemtl lambert1
s 1
f 37/1/1 34/2/2 35/3/3 40/4/4
f 42/5/5 47/6/6 44/7/7 112/8/8
f 15/9/9 1/10/10 3/11/11
f 6/12/12 149/13/12 8/14/12 2/15/13
f 7/16/14 5/17/14 1/10/10
f 8/14/12 150/18/12 10/19/12 2/15/13
f 9/20/14 7/16/14 1/10/10
f 10/19/12 12/21/12 2/15/13
f 11/22/14 9/20/14 1/10/10
f 12/21/12 146/23/15 2/15/13
f 13/24/16 145/25/14 1/10/10
f 4/26/17 2/15/18 16/27/19
f 59/28/20 58/29/21 81/30/22 84/31/23
f 14/32/12 124/33/24 2/15/13
f 15/9/9 121/34/25 1/10/10
f 83/35/26 82/36/27 97/37/28 99/38/29
f 85/39/30 91/40/31 93/41/32 94/42/33
f 4/26/17 113/43/34 2/15/18
f 5/17/14 116/44/35 1/10/10
f 103/45/36 101/46/37 119/47/38 115/48/39
f 111/49/40 110/50/41 108/51/42 106/52/43
f 47/6/6 42/5/44 50/53/45 51/54/46
f 113/43/47 6/12/48 2/15/49
f 3/11/11 1/10/10 116/44/35
f 121/34/50 13/24/16 1/10/10
f 16/27/19 2/15/18 124/33/51
f 132/55/52 146/23/53 133/56/54
f 56/57/55 55/58/56 139/59/57 140/60/58
f 142/61/59 137/62/60 135/63/61
f 145/25/14 11/22/14 1/10/10
f 146/23/15 14/32/12 2/15/13
f 27/64/62 26/65/63 25/66/64 28/67/64
f 31/68/65 30/69/65 29/70/66 32/71/67
f 35/3/3 34/2/2 33/72/68 36/73/69
f 39/74/70 38/75/71 37/1/1 40/4/4
f 46/76/72 45/77/73 44/7/7 47/6/6
f 67/78/74 66/79/75 65/80/76 68/81/77
f 70/82/78 69/83/79 72/84/80 71/85/81
f 29/70/66 26/65/63 27/64/62 32/71/67
f 71/85/81 68/81/77 65/80/76 70/82/78
f 70/82/78 65/80/76 18/86/82 19/87/83
f 24/88/84 21/89/85 26/65/63 29/70/66
f 32/71/67 27/64/62 34/2/2 37/1/1
f 35/3/3 73/90/86 148/91/87 40/4/4
f 147/92/88 148/91/87 73/90/86 77/93/89
f 56/57/55 53/94/90 58/29/21 59/28/20
f 64/95/91 61/96/92 68/81/77 71/85/81
f 66/79/75 3/11/93 17/97/94
f 4/26/17 69/83/79 20/98/95
f 5/17/14 25/66/64 22/99/96
f 6/12/97 23/100/98 30/69/65
f 7/16/14 33/72/68 28/67/64
f 8/14/12 149/13/12 150/18/12
f 9/20/14 41/101/99 78/102/100
f 9/20/14 78/102/100 74/103/101
f 9/20/14 74/103/101 36/73/69
f 10/19/12 39/74/70 76/104/102
f 10/19/12 76/104/102 80/105/103
f 10/19/12 80/105/103 45/77/73
f 11/22/14 48/106/104 43/107/105
f 12/21/12 46/76/72 52/108/106
f 13/24/16 57/109/107 54/110/108
f 14/32/12 55/58/56 60/111/109
f 15/9/9 67/78/74 62/112/110
f 72/84/80 16/27/19 63/113/111
f 26/65/63 21/89/85 22/99/96 25/66/64
f 27/64/62 28/67/64 33/72/68 34/2/2
f 73/90/86 35/3/3 36/73/69 74/103/101
f 42/5/112 43/107/105 48/106/104 49/114/113
f 79/115/114 44/7/7 45/77/73 80/105/103
f 58/29/21 53/94/90 54/110/108 57/109/107
f 62/112/110 67/78/74 68/81/77 61/96/92
f 18/86/82 65/80/76 66/79/75 17/97/94
f 69/83/79 70/82/78 19/87/83 20/98/95
f 30/69/65 23/100/98 24/88/84 29/70/66
f 38/75/71 31/68/65 32/71/67 37/1/1
f 76/104/102 39/74/70 40/4/4 75/116/115
f 77/93/89 73/90/86 74/103/101 78/102/100
f 80/105/103 76/104/102 75/116/115 79/115/114
f 77/93/89 78/102/100 41/101/99 112/8/8
f 50/53/45 42/5/112 49/114/113
f 52/108/106 46/76/72 47/6/6 51/54/46
f 60/111/109 55/58/56 56/57/55 59/28/20
f 63/113/111 64/95/91 71/85/81 72/84/80
f 97/37/28 82/36/27 81/30/22 98/117/116
f 96/118/117 84/31/23 83/35/26 99/38/29
f 87/119/118 86/120/119 85/39/120
f 89/121/121 88/122/122 92/123/123 93/41/32
f 81/30/22 58/29/21 57/109/107 98/117/116
f 62/112/110 61/96/92 86/120/119 87/119/118
f 88/122/122 90/124/124 64/95/91 63/113/111
f 90/124/124 86/120/119 61/96/92 64/95/91
f 99/38/29 97/37/28 122/125/125 126/126/126
f 59/28/20 84/31/23 96/118/117 60/111/109
f 84/31/23 81/30/22 82/36/27 83/35/26
f 90/124/124 88/122/122 89/121/121 91/40/127
f 90/124/124 91/40/127 85/39/128 86/120/119
f 96/118/117 99/38/29 126/126/126 124/33/24
f 97/37/28 98/117/116 121/34/50 122/125/125
f 101/46/129 100/127/130 102/128/131
f 104/129/132 103/45/133 115/48/39 113/43/134
f 108/51/42 107/130/135 106/52/43
f 100/127/130 18/86/82 17/97/94 102/128/131
f 20/98/95 19/87/83 105/131/136 104/129/132
f 22/99/96 21/89/85 106/52/43 107/130/135
f 24/88/84 23/100/98 109/132/137 111/49/40
f 19/87/83 18/86/82 100/127/130 105/131/136
f 111/49/40 106/52/43 21/89/85 24/88/84
f 119/47/38 101/46/37 102/128/131 118/133/138
f 103/45/133 104/129/132 105/131/136
f 103/45/36 105/131/136 100/127/130 101/46/129
f 110/50/41 111/49/40 109/132/137
f 112/8/8 41/101/99 43/107/105 42/5/5
f 115/48/39 114/134/139 113/43/134
f 120/135/140 119/47/38 118/133/138 117/136/14
f 110/50/41 114/134/139 120/135/140 108/51/42
f 107/130/135 108/51/42 120/135/140 117/136/14
f 114/134/139 110/50/41 109/132/137 113/43/47
f 119/47/38 120/135/140 114/134/139 115/48/39
f 122/125/125 121/34/25 123/137/141
f 125/138/142 124/33/24 126/126/126
f 93/41/32 92/123/123 124/33/51 125/138/142
f 94/42/33 93/41/32 125/138/142 123/137/141
f 95/139/143 94/42/33 123/137/141 121/34/25
f 125/138/142 126/126/126 122/125/125 123/137/141
f 128/140/144 127/141/145 129/142/146
f 132/55/147 133/56/148 134/143/149
f 50/53/45 49/114/113 129/142/146 127/141/145
f 129/142/146 49/114/113 48/106/104 130/144/150
f 133/56/148 52/108/106 51/54/46 134/143/149
f 51/54/46 50/53/45 127/141/145 134/143/149
f 131/145/151 128/140/152 130/144/150
f 130/144/150 128/140/153 129/142/146
f 132/55/154 134/143/149 127/141/145 128/140/144
f 136/146/155 135/63/156 137/62/157 138/147/157
f 135/63/156 136/146/155 140/60/158 141/148/159
f 139/59/160 141/148/159 140/60/158
f 54/110/108 53/94/90 136/146/161 138/147/162
f 140/60/58 136/146/161 53/94/90 56/57/55
f 144/149/163 143/150/164 146/23/53
f 143/150/165 142/61/166 146/23/165
f 145/25/14 142/61/14 143/150/14
f 145/25/14 143/150/14 144/149/14
f 147/92/88 44/7/7 79/115/114
f 75/116/115 148/91/87 147/92/88 79/115/114
f 40/4/4 148/91/87 75/116/115
f 113/43/34 4/26/17 20/98/95 104/129/132
f 113/43/47 109/132/137 23/100/98 6/12/48
f 149/13/12 6/12/12 30/69/65 31/68/65
f 150/18/12 149/13/12 31/68/65 38/75/71
f 10/19/12 150/18/12 38/75/71 39/74/70
f 10/19/12 45/77/73 46/76/72 12/21/12
f 12/21/12 52/108/106 133/56/148 146/23/15
f 139/59/57 55/58/56 14/32/12 146/23/15
f 124/33/24 14/32/12 60/111/109 96/118/117
f 92/123/123 16/27/19 124/33/51
f 4/26/17 16/27/19 72/84/80 69/83/79
f 88/122/122 63/113/111 16/27/19 92/123/123
f 144/149/163 128/140/152 131/145/151
f 146/23/167 141/148/61 139/59/60
f 142/61/59 135/63/61 141/148/61 146/23/167
f 144/149/163 146/23/53 132/55/52 128/140/152
f 112/8/8 147/92/88 77/93/89
f 112/8/8 44/7/7 147/92/88
f 15/9/9 3/11/11 66/79/75 67/78/74
f 95/139/143 15/9/9 62/112/110 87/119/118
f 57/109/107 13/24/16 121/34/50 98/117/116
f 142/61/14 145/25/14 138/147/162 137/62/168
f 145/25/14 144/149/14 131/145/14 130/144/150
f 11/22/14 43/107/105 41/101/99 9/20/14
f 9/20/14 36/73/69 33/72/68 7/16/14
f 7/16/14 28/67/64 25/66/64 5/17/14
f 5/17/14 22/99/96 107/130/135 117/136/14
f 116/44/35 117/136/14 118/133/138
f 3/11/11 116/44/35 118/133/138
f 145/25/14 130/144/150 48/106/104 11/22/14
f 138/147/162 145/25/14 13/24/16 54/110/108
f 95/139/143 121/34/25 15/9/9
f 3/11/11 118/133/138 102/128/131 17/97/94
f 5/17/14 117/136/14 116/44/35
f 87/119/118 94/42/33 95/139/143
f 87/119/118 85/39/120 94/42/33
f 93/41/32 91/40/31 89/121/121
